<svg class="svgOrigin" xmlns="http://www.w3.org/2000/svg" width="600" height="400" x="0px" y="0px" viewBox="0 0 600 400" enable-background="new 0 0 600 400">
<g>
	<rect x="0.001465" fill="#005284" width="599.998535" height="400"/>
	<polygon fill="#FFFFFF" points="300.001007,0 263.283691,0 173.5103,59.84911 173.5103,0.00151 126.488297,0.00151 
		126.488297,58.299809 39.040501,0 0.001465,0 0.001465,26.100609 75.582001,76.488312 0.001465,76.488312 0.001465,123.51371 
		78.015099,123.51371 0.001465,175.522903 0.001465,200 41.394001,200 126.488297,143.270004 126.488297,200.001007 
		173.514191,200.001007 173.514191,141.776413 260.850098,200 300.001007,200 300.001007,173.974609 224.308594,123.51371 
		299.998993,123.51371 299.998993,76.488312 226.662094,76.488312 300.001007,27.595209 	"/>
	<polygon fill="#FFFFFF" points="149.8936,251.3965 157.083496,279.858398 183.8237,267.737305 166.054199,291.108398 
		192.202591,304.453094 162.8535,305.129913 168.723602,333.895508 149.8936,311.371094 131.063004,333.895508 
		136.93309,305.129913 107.584,304.453094 133.732391,291.108398 115.963394,267.737305 142.703094,279.858398 	"/>
	<polygon fill="#FFFFFF" points="379.922882,148.193802 383.606384,162.780304 397.3125,156.567902 388.206085,168.54541 
		401.607391,175.383804 386.563477,175.730499 389.574188,190.472198 379.922882,178.929199 370.270477,190.472198 
		373.281281,175.730499 358.237305,175.383804 371.639587,168.54541 362.533203,156.567902 376.238281,162.780304 	"/>
	<polygon fill="#FFFFFF" points="445.045898,302.948212 448.729492,317.535187 462.435486,311.323212 453.329102,323.298798 
		466.730499,330.139587 451.686493,330.485413 454.697296,345.227509 445.045898,333.683594 435.393585,345.227509 
		438.404297,330.485413 423.360382,330.139587 436.762695,323.298798 427.656281,311.323212 441.361298,317.535187 	"/>
	<polygon fill="#FFFFFF" points="452.309601,35.901409 455.99408,50.487808 469.699188,44.27541 460.593781,56.252907 
		473.995087,63.091808 458.951202,63.438 461.961884,78.17971 452.309601,66.636711 442.658203,78.17971 445.668884,63.438 
		430.625,63.091808 444.026398,56.252907 434.919891,44.27541 448.626007,50.487808 	"/>
	<polygon fill="#FFFFFF" points="521.527283,112.62011 525.210876,127.207001 538.916992,120.994606 529.810486,132.97171 
		543.211914,139.810501 528.16803,140.157211 531.178711,154.898407 521.527283,143.356003 511.875,154.898407 
		514.885681,140.157211 499.841797,139.810501 513.24408,132.97171 504.137695,120.994606 517.842773,127.207001 	"/>
	<polygon fill="#FFFFFF" points="488.521484,215.105499 491.239288,223.467804 500.031281,223.467804 492.918884,228.638702 
		495.636688,237.001999 488.521484,231.832993 481.407196,237.001999 484.123993,228.638702 477.009796,223.467804 
		485.804688,223.467804 	"/>
	<polygon fill="#D60029" points="300.001007,86.716805 163.285202,86.716805 163.285202,-0.001 136.7173,-0.001 136.7173,86.716805 
		0.001465,86.716805 0.001465,113.283707 136.7173,113.283707 136.7173,200 163.285202,200 163.285202,113.283707 
		300.001007,113.283707 	"/>
	<polygon fill="#D60029" points="0.001465,0 0.001465,16.339809 89.752899,76.173805 114.260696,76.173805 	"/>
	<polygon fill="#D60029" points="299.998993,183.658203 210.249496,123.825706 185.741699,123.826706 300.001007,200 	"/>
	<polygon fill="#D60029" points="173.5103,76.173805 173.5103,67.988312 275.490692,0 300.001007,0 185.741699,76.173805 	"/>
	<polygon fill="#D60029" points="114.260696,123.826706 0.001465,200 24.5117,200 126.488297,132.014603 126.488297,123.826706 	"/>
</g>
</svg>
