<svg class="svgOrigin" xmlns="http://www.w3.org/2000/svg" width="600" height="400" x="0px" y="0px" viewBox="0 0 600 400" enable-background="new 0 0 600 400">
<g>
	<rect x="0.000488" y="-0.00049" fill="#FFFFFF" width="599.999512" height="400.000488"/>
	<rect x="447.835876" y="-0.00049" fill="#D60021" width="152.164108" height="400.000488"/>
	<rect x="0.000488" y="-0.00049" fill="#D60021" width="152.163605" height="400.000488"/>
	<path fill="#D60021" d="M293.966278,352.366211c0,0,1.544403-60.165009,1.544403-62.589813
		c0-2.425781-2.425293-6.831085-13.224091-6.831085c-10.798309,0-76.696793,9.03418-76.696793,9.03418
		s18.292496-25.123077,18.514206-29.752899c0.222183-4.628876-52.23291-59.065491-52.23291-59.065491
		s18.071304-8.373001,18.732407-10.797302s-13.002411-48.927292-13.002411-48.927292s32.176208,6.832489,35.702606,6.832489
		s9.845703-18.384186,9.845703-18.384186s22.4702,27.371994,28.891098,34.299789
		c6.009796,6.483902,7.434601,0.843704,6.759308-2.873093c-0.675323-3.7173-14.360809-67.754898-14.360809-67.754898
		s11.657684,7.772995,18.921783,13.010796c7.264221,5.237305,9.801819,3.379402,12.674805-0.8452
		C278.908203,103.497604,300,55.433109,300,55.433109s21.091797,48.064495,23.964783,52.289097
		c2.873108,4.224602,5.410217,6.082504,12.674805,0.8452c7.264709-5.237801,18.921906-13.010796,18.921906-13.010796
		s-13.685486,64.037598-14.361298,67.754898c-0.674805,3.716797,0.75,9.356995,6.759796,2.873093
		c6.420898-6.927795,28.890594-34.299789,28.890594-34.299789s6.319305,18.384186,9.845703,18.384186
		s35.703094-6.832489,35.703094-6.832489s-13.664001,46.502991-13.002899,48.927292s18.732391,10.797302,18.732391,10.797302
		s-52.455078,54.436615-52.232391,59.065491c0.22171,4.629822,18.513702,29.752899,18.513702,29.752899
		s-65.898499-9.03418-76.696289-9.03418c-10.798889,0-13.224609,4.405304-13.224609,6.831085
		c0,2.424805,1.544891,62.589813,1.544891,62.589813H293.966278z"/>
</g>
</svg>
