<svg class="svgOrigin" xmlns="http://www.w3.org/2000/svg" width="600" height="400" x="0px" y="0px" viewBox="0 0 600 400" enable-background="new 0 0 600 400">
<g>
	<rect x="0.000488" y="-0.00049" fill="#FF0033" width="599.999512" height="400.000488"/>
	<polygon fill="#FFD600" points="91.7407,42.230999 105.742195,85.321808 151.050293,85.321808 114.394997,111.953606 
		128.395996,155.0439 91.7407,128.412109 55.0854,155.0439 69.086899,111.953606 32.431198,85.321808 77.7397,85.321808 	"/>
	<polygon fill="#FFD600" points="187.462891,20.07131 188.317902,34.55521 202.358398,38.217308 188.846695,43.505909 
		189.701691,57.990707 180.496094,46.77541 166.985397,52.064907 174.806198,39.844707 165.602097,28.62941 179.641098,32.290508 	
		"/>
	<polygon fill="#FFD600" points="236.849091,63.666508 230.992188,76.940407 241.808594,86.613304 227.373001,85.143997 
		221.516098,98.418907 218.451187,84.237808 204.016602,82.769508 216.557098,75.473106 213.493698,61.291 224.309097,70.961906 	
		"/>
	<polygon fill="#FFD600" points="223.098587,112.667999 227.567902,126.471207 242.077591,126.486305 230.328598,135.001511 
		234.798294,148.80571 223.06839,140.26561 211.321793,148.781708 215.81929,134.988312 204.091293,126.447304 
		218.600098,126.461411 	"/>
	<polygon fill="#FFD600" points="191.038101,156.285599 189.202103,170.677704 202.324188,176.871109 188.06839,179.571304 
		186.232391,193.964798 179.257797,181.242706 165.001495,183.944809 174.946289,173.379913 167.972702,160.657211 
		181.092789,166.849609 	"/>
</g>
</svg>
