<svg class="svgOrigin" xmlns="http://www.w3.org/2000/svg" width="600" height="400" x="0px" y="0px" viewBox="0 0 600 400" enable-background="new 0 0 600 400">
<rect x="-0.000488" fill="#004F83" width="600.000488" height="400"/>
<polygon fill="#FFD700" points="299.998993,38.718708 305.209015,54.75391 322.070282,54.75391 308.429688,64.664612 
	313.638702,80.699707 299.998993,70.789108 286.358887,80.699707 291.568787,64.664612 277.92868,54.75391 294.789093,54.75391 "/>
<polygon fill="#FFD700" points="229.866699,57.538609 235.076187,73.573212 251.936493,73.573212 238.297897,83.48391 
	243.50679,99.518997 229.866699,89.608406 216.226089,99.518997 221.436005,83.48391 207.795898,73.573212 224.656693,73.573212 "/>
<polygon fill="#FFD700" points="370.132782,57.537609 375.343781,73.572311 392.203094,73.572311 378.5625,83.48291 
	383.771484,99.518105 370.132782,89.607407 356.49408,99.518105 361.703094,83.48291 348.0625,73.572311 364.921906,73.572311 "/>
<polygon fill="#FFD700" points="421.472687,108.877907 426.683594,124.913109 443.542999,124.913109 429.902283,134.8237 
	435.111298,150.858414 421.472687,140.948212 407.834015,150.858414 413.040985,134.8237 399.400391,124.913109 
	416.261688,124.913109 "/>
<polygon fill="#FFD700" points="440.265594,179.008804 445.476593,195.0439 462.335876,195.0439 448.695282,204.95311 
	453.904297,220.990204 440.265594,211.076202 426.627014,220.990204 431.835876,204.95311 418.19339,195.0439 435.054688,195.0439 
	"/>
<polygon fill="#FFD700" points="421.474579,249.1436 426.685486,265.176788 443.544891,265.176788 429.904297,275.085907 
	435.113281,291.122986 421.474579,281.209015 407.835876,291.122986 413.042999,275.085907 399.402283,265.176788 
	416.263702,265.176788 "/>
<polygon fill="#FFD700" points="370.132782,300.484406 375.343781,316.517609 392.203094,316.517609 378.5625,326.427704 
	383.771484,342.464813 370.132782,332.550812 356.49408,342.464813 361.703094,326.427704 348.0625,316.517609 
	364.921906,316.517609 "/>
<polygon fill="#FFD700" points="300.001007,319.276398 305.210907,335.308594 322.072296,335.308594 308.429688,345.218689 
	313.638702,361.254913 300.001007,351.341797 286.361786,361.254913 291.571289,345.218689 277.929688,335.308594 
	294.790009,335.308594 "/>
<polygon fill="#FFD700" points="229.868195,300.484406 235.078598,316.517609 251.938995,316.517609 238.297897,326.427704 
	243.50679,342.464813 229.868195,332.550812 216.229004,342.464813 221.438492,326.427704 207.79689,316.517609 
	224.6577,316.517609 "/>
<polygon fill="#FFD700" points="178.526901,249.1436 183.737289,265.176788 200.597702,265.176788 186.9561,275.089813 
	192.164993,291.122986 178.526901,281.212891 164.887695,291.122986 170.096695,275.089813 156.455597,265.176788 
	173.315903,265.176788 "/>
<polygon fill="#FFD700" points="159.734894,179.010712 164.944794,195.0439 181.805191,195.0439 168.163589,204.95311 
	173.373001,220.990204 159.734894,211.076202 146.095703,220.990204 151.304199,204.95311 137.663101,195.0439 154.523392,195.0439 
	"/>
<polygon fill="#FFD700" points="178.526901,108.878906 183.737289,124.912109 200.597702,124.912109 186.9561,134.8228 
	192.164993,150.859406 178.526901,140.946304 164.887695,150.859406 170.096695,134.8228 156.455597,124.912109 
	173.315903,124.912109 "/>
</svg>
