<svg class="svgOrigin" xmlns="http://www.w3.org/2000/svg" width="600" height="400" x="0px" y="0px" viewBox="0 0 600 400" enable-background="new 0 0 600 400">
<g>
	<rect fill="#FFFFFF" width="600" height="400"/>
	<circle fill="#007BB5" cx="300" cy="200" r="50.4277"/>
	<rect fill="#FFA500" width="600" height="132.835007"/>
	<rect y="267.165985" fill="#00844A" width="600" height="132.834"/>
	<polygon fill="#FFFFFF" points="295.129395,244.538101 298.924286,247.472702 298.06839,215.252899 290.852997,246.719711 	"/>
	<polygon fill="#FFFFFF" points="306.381805,244.34671 310.789093,246.24411 301.930695,215.252899 302.783203,247.524399 	"/>
	<polygon fill="#FFFFFF" points="317.229492,241.357407 321.973602,242.09671 305.669891,214.289993 314.539093,245.332001 	"/>
	<polygon fill="#FFFFFF" points="326.992188,235.758804 331.770477,235.2939 309.052704,212.425812 325.375,240.278305 	"/>
	<polygon fill="#FFFFFF" points="335.050781,227.905304 339.5625,226.263702 311.863281,209.779312 334.612305,232.684601 	"/>
	<polygon fill="#FFFFFF" points="340.899384,218.292007 344.858398,215.577103 313.925781,206.514603 341.664093,223.028305 	"/>
	<polygon fill="#FFFFFF" points="344.167999,207.523407 347.327087,203.907211 315.110382,202.837906 346.089783,211.920898 	"/>
	<polygon fill="#FFFFFF" points="344.649384,196.2798 346.807587,191.990204 315.341797,198.984406 347.605499,200.060104 	"/>
	<polygon fill="#FFFFFF" points="342.314484,185.272003 343.334991,180.579605 314.604492,195.192902 346.120087,188.195313 	"/>
	<polygon fill="#FFFFFF" points="337.308594,175.192398 337.128906,170.394501 312.946289,191.7061 341.723602,177.075211 	"/>
	<polygon fill="#FFFFFF" points="329.950195,166.678207 328.580078,162.076202 310.470703,188.740707 334.696289,167.401901 	"/>
	<polygon fill="#FFFFFF" points="320.702087,160.266113 318.229492,156.150406 307.336884,186.486313 325.479492,159.784698 	"/>
	<polygon fill="#FFFFFF" points="310.149384,156.360413 306.727478,152.990707 303.738281,185.085007 314.654297,154.703613 	"/>
	<polygon fill="#FFFFFF" points="298.955078,155.207504 294.8013,152.796906 299.903778,184.623505 302.905304,152.4814 	"/>
	<polygon fill="#FFFFFF" points="287.827087,156.880905 283.204102,155.5811 296.076202,185.131805 290.972687,153.256302 	"/>
	<polygon fill="#FFFFFF" points="277.466797,161.273911 272.665009,161.167007 292.495087,186.57811 279.609894,156.980499 	"/>
	<polygon fill="#FFFFFF" points="268.52829,168.110413 263.851105,169.203613 289.387695,188.871613 269.533691,163.4189 	"/>
	<polygon fill="#FFFFFF" points="261.574707,176.958511 257.31839,179.183105 286.949707,191.867706 261.378906,172.164612 	"/>
	<polygon fill="#FFFFFF" points="257.04538,187.260712 253.477097,190.475113 285.335388,195.376007 255.660599,182.666504 	"/>
	<polygon fill="#FFFFFF" points="255.226089,198.365707 252.571289,202.36821 284.645996,199.175812 252.741196,194.2612 	"/>
	<polygon fill="#FFFFFF" points="256.231384,209.575211 254.6577,214.112305 284.9263,203.027298 252.801788,206.218704 	"/>
	<polygon fill="#FFFFFF" points="259.997986,220.179703 259.604492,224.964798 286.156708,206.688507 255.84079,217.782211 	"/>
	<polygon fill="#FFFFFF" points="266.289093,229.510712 267.100098,234.24321 288.260681,209.926804 261.664093,228.224609 	"/>
	<polygon fill="#FFFFFF" points="274.705597,236.979507 276.670898,241.362305 291.104492,212.538101 269.906708,236.887711 	"/>
	<polygon fill="#FFFFFF" points="284.718781,242.117203 287.712891,245.870102 294.509796,214.358398 280.047882,243.223602 	"/>
	<path fill="none" stroke="#FFFFFF" stroke-width="2.04584" d="M309.973602,200c0,5.507813-4.464813,9.972702-9.973602,9.972702
		c-5.507813,0-9.973114-4.46489-9.973114-9.972702c0-5.507797,4.465302-9.973099,9.973114-9.973099
		C305.508789,190.026901,309.973602,194.492203,309.973602,200z"/>
</g>
</svg>
