<svg class="svgOrigin" xmlns="http://www.w3.org/2000/svg" width="600" height="400" x="0px" y="0px" viewBox="0 0 600 400" enable-background="new 0 0 600 400">
<g>
	<rect x="0.000488" y="-0.00049" fill="#D60029" width="599.999512" height="400.000488"/>
	<rect x="0.000488" y="199.999512" fill="#FFFFFF" width="599.999512" height="28.570799"/>
	<rect x="0.000488" y="257.142609" fill="#FFFFFF" width="599.999512" height="28.571299"/>
	<rect x="0.000488" y="371.427704" fill="#FFFFFF" width="599.999512" height="28.5723"/>
	<rect x="0.000488" y="314.286102" fill="#FFFFFF" width="599.999512" height="28.570299"/>
	<rect x="0.000488" y="28.57181" fill="#FFFFFF" width="599.999512" height="28.570799"/>
	<rect x="0.000488" y="85.714409" fill="#FFFFFF" width="599.999512" height="28.570799"/>
	<rect x="0.000488" y="142.856903" fill="#FFFFFF" width="599.999512" height="28.570799"/>
	<rect x="0.000488" y="-0.00049" fill="#004A7B" width="300" height="228.570801"/>
	<polygon fill="#FFD600" points="192.25589,83.111809 199.371597,51.759308 206.486801,83.111809 226.549789,57.95171 
		219.307602,89.286606 248.345688,75.301308 228.180191,100.411606 260.44339,100.371605 231.346695,114.28521 
		260.44339,128.198212 228.180191,128.158707 248.345688,153.268997 219.307602,139.283707 226.549789,170.618713 
		206.486801,145.457993 199.371597,176.811005 192.25589,145.457993 172.192902,170.618713 179.435501,139.283707 
		150.397003,153.268997 170.563004,128.158707 138.299789,128.198212 167.395996,114.28521 138.299789,100.371605 
		170.563004,100.411606 150.397003,75.301308 179.435501,89.286606 172.192902,57.95171 	"/>
	<path fill="#FFD600" d="M63.451698,114.28521c0-47.799805,38.749001-86.548904,86.548805-86.548904
		c7.654785,0,15.074188,1.0049,22.142593,2.8701c-14.284698-8.314409-30.878494-13.0991-48.597702-13.0991
		c-53.448692,0-96.778297,43.329098-96.778297,96.777901c0,53.448692,43.329605,96.778297,96.778297,96.778297
		c17.719208,0,34.313004-4.785202,48.597702-13.099609c-7.068405,1.865204-14.487808,2.870102-22.142593,2.870102
		C102.200699,200.834,63.451698,162.084503,63.451698,114.28521z"/>
</g>
</svg>
