<svg class="svgOrigin" xmlns="http://www.w3.org/2000/svg" width="600" height="400" x="0px" y="0px" viewBox="0 0 600 400" enable-background="new 0 0 600 400">
<g>
	<rect x="0.002441" y="0.001" fill="#005284" width="599.997559" height="399.998993"/>
	<polygon fill="#FFFFFF" points="300.001495,0.001 263.28418,0.001 173.5112,59.849609 173.5112,0.001 126.4888,0.001 
		126.4888,58.299309 39.0415,0.001 0.002441,0.001 0.002441,26.101109 75.582497,76.487808 0.002441,76.487808 0.002441,123.514206 
		78.016098,123.514206 0.002441,175.522903 0.002441,199.998993 41.394501,199.998993 126.4888,143.268997 126.4888,200.001511 
		173.515091,200.001511 173.515091,141.776901 260.850586,199.998993 300.001495,199.998993 300.001495,173.974609 
		224.309601,123.514206 299.999481,123.514206 299.999481,76.487808 226.663101,76.487808 300.001495,27.595709 	"/>
	<polygon fill="#D60029" points="300.001495,86.717308 163.285599,86.717308 163.285599,-0.00149 136.717804,-0.00149 
		136.717804,86.717308 0.002441,86.717308 0.002441,113.282707 136.717804,113.282707 136.717804,199.998993 163.285599,199.998993 
		163.285599,113.282707 300.001495,113.282707 	"/>
	<polygon fill="#D60029" points="0.002441,0.001 0.002441,16.339409 89.753403,76.174309 114.261696,76.174309 	"/>
	<polygon fill="#D60029" points="299.999481,183.658707 210.25,123.825706 185.742203,123.825706 300.001495,199.998993 	"/>
	<polygon fill="#D60029" points="173.5112,76.174309 173.5112,67.988808 275.49118,0.001 300.001495,0.001 185.742203,76.174309 	
		"/>
	<polygon fill="#D60029" points="114.261696,123.825706 0.002441,199.998993 24.512699,199.998993 126.4888,132.015106 
		126.4888,123.825706 	"/>
	<polygon fill="#FFFFFF" points="397.893585,124.526909 404.40329,144.553711 425.462891,144.553711 408.424805,156.932602 
		414.93158,176.961411 397.893585,164.582504 380.855499,176.961411 387.365204,156.932602 370.327087,144.553711 
		391.386688,144.553711 	"/>
	<polygon fill="#D60029" points="409.095703,168.928207 399.696289,162.097198 397.893585,160.786606 396.091797,162.097198 
		386.69339,168.924301 390.282196,157.883804 390.972687,155.762207 389.166992,154.447311 379.775391,147.626511 
		391.388702,147.626511 393.618195,147.626511 394.305695,145.504913 397.893585,134.454605 401.484375,145.504913 
		402.170898,147.626511 404.40329,147.626511 416.016602,147.626511 406.625,154.447311 404.81839,155.762207 
		405.507782,157.883804 409.095703,168.928207 	"/>
	<polygon fill="#FFFFFF" points="451.67868,53.937508 458.188477,73.964409 479.247986,73.964409 462.209991,86.343307 
		468.716797,106.372108 451.67868,93.99321 434.640594,106.372108 441.150391,86.343307 424.112274,73.964409 445.171875,73.964409 
			"/>
	<polygon fill="#D60029" points="462.88089,98.336906 453.481384,91.507805 451.676788,90.197311 449.875,91.507805 
		440.476593,98.336906 444.067383,87.292511 444.75589,85.170906 442.952087,83.859909 433.555695,77.033211 445.173798,77.033211 
		447.401398,77.033211 448.09079,74.913605 451.676788,63.86721 455.271484,74.913605 455.959991,77.033211 458.190399,77.033211 
		469.80368,77.033211 460.405273,83.859909 458.603485,85.170906 459.290985,87.292511 462.88089,98.336906 	"/>
	<polygon fill="#FFFFFF" points="451.67868,293.350616 458.188477,313.377014 479.247986,313.377014 462.209991,325.75589 
		468.716797,345.787109 451.67868,333.408203 434.640594,345.787109 441.150391,325.75589 424.112274,313.377014 
		445.171875,313.377014 	"/>
	<polygon fill="#D60029" points="462.88089,337.753906 453.481384,330.926788 451.676788,329.616211 449.875,330.926788 
		440.476593,337.753906 444.067383,326.705109 444.75589,324.584015 442.952087,323.272491 433.555695,316.446289 
		445.173798,316.446289 447.401398,316.446289 448.09079,314.328094 451.676788,303.280304 455.271484,314.328094 
		455.959991,316.446289 458.190399,316.446289 469.80368,316.446289 460.405273,323.272491 458.603485,324.584015 
		459.290985,326.705109 462.88089,337.753906 	"/>
	<polygon fill="#FFFFFF" points="520.344666,113.52491 526.032166,131.022003 544.43457,131.022003 529.546875,141.838913 
		535.232361,159.340302 520.344666,148.523911 505.456085,159.340302 511.144501,141.838913 496.25589,131.022003 
		514.658203,131.022003 	"/>
	<polygon fill="#D60029" points="511.288086,151.314911 514.058594,142.785614 514.75,140.667999 512.944275,139.357407 
		505.698181,134.092804 514.656311,134.092804 516.885681,134.092804 517.573181,131.969208 520.344666,123.442406 
		523.115173,131.969208 523.802673,134.092804 526.032166,134.092804 534.991211,134.092804 527.74408,139.357407 
		525.938477,140.664108 526.625977,142.785614 529.392578,151.308609 522.146484,146.044403 520.344666,144.733902 
		518.541992,146.044403 511.288086,151.314911 	"/>
</g>
</svg>
