<svg class="svgOrigin" xmlns="http://www.w3.org/2000/svg" width="600" height="400" x="0px" y="0px" viewBox="0 0 600 400" enable-background="new 0 0 600 400">
<g>
	<rect x="0.000488" y="-0.00049" fill="#D60021" width="599.999512" height="400.000488"/>
	<polygon fill="#FFFFFF" points="599.997986,149.866699 249.063995,149.866699 249.063995,-0.00049 148.801804,-0.00049 
		148.801804,149.866699 0.000488,149.866699 0.000488,149.866699 0.000488,250.129898 0.000488,250.129898 148.801804,250.129898 
		148.801804,400 249.067886,400 249.063995,250.129898 599.997986,250.129898 600,250.129898 600,149.866699 	"/>
	<polygon fill="#004A84" points="224.511688,-0.00049 173.3535,-0.00049 173.3535,174.419907 0.000488,174.419907 
		0.000488,225.580109 173.3535,225.580109 173.3535,400 224.515594,400 224.513687,225.580109 600,225.580109 600,174.419907 
		224.513687,174.419907 	"/>
</g>
</svg>
