<svg class="svgOrigin" xmlns="http://www.w3.org/2000/svg" width="600" height="400" x="0px" y="0px" viewBox="0 0 600 400" enable-background="new 0 0 600 400">
<g>
	<rect x="0.000488" y="-0.00049" fill="#FFFFFF" width="599.999512" height="400.000488"/>
	<polygon fill="#D60029" points="600,199.999512 342.475586,199.999512 0.000488,400 600,400 	"/>
	<polygon fill="#004A7B" points="600,199.999512 342.475586,199.999512 0.000488,-0.00049 600,-0.00049 	"/>
	<path fill="#FFBD00" d="M195.221695,206.571304l8.390106-6.570801l-8.390106-6.571793l-36.544495,2.966797
		c-0.06781-0.849106-0.1577-1.692398-0.273407-2.527298l31.507797-4.599213l-6.299789-4.933594l-25.894501,5.773499
		c-1.126007-4.952698-3.075699-9.588898-5.702209-13.7603l22.395508-14.229004l0.96489-7.942398l-25.527786,19.025909
		c-0.51181-0.676208-1.045898-1.3349-1.595306-1.980011l27.9375-23.741196l1.285706-10.57959l-10.580109,1.28569
		l-23.741699,27.936508c-0.645493-0.548309-1.302704-1.083008-1.979004-1.594208l19.024902-25.528305l-7.942902,0.964813
		l-14.228989,22.394501c-4.17041-2.6259-8.807602-4.576111-13.760208-5.702103l5.773911-25.894608l-4.933609-6.298294
		l-4.598595,31.50679c-0.835007-0.115692-1.6782-0.20549-2.527405-0.273895l2.9673-36.543396l-6.572197-8.390198l-6.572304,8.390198
		l2.967308,36.543396c-0.849106,0.068405-1.692406,0.158203-2.527405,0.273895l-4.598099-31.50679l-4.934097,6.298294
		l5.773895,25.894608c-4.952599,1.125992-9.589798,3.076202-13.7612,5.703094l-14.227997-22.393997l-7.941902-0.966309
		l19.024902,25.527313c-0.6763,0.5112-1.333504,1.045898-1.979004,1.5952l-23.742699-27.936508l-10.579098-1.28569
		l1.284698,10.57869l27.937504,23.743103c-0.5494,0.645004-1.083504,1.302795-1.5952,1.979004l-25.526905-19.024902
		l0.964802,7.941391l22.3946,14.229004c-2.627502,4.171402-4.576202,8.808609-5.702202,13.76181l-25.894497-5.774002
		l-6.298302,4.932587l31.506802,4.598206c-0.116203,0.8349-0.2061,1.678207-0.273903,2.527298l-36.544498-2.96579
		l-8.389099,6.570801l8.389099,6.571793l36.544498-2.966797c0.068802,0.851593,0.1577,1.69429,0.273903,2.529297L38.8438,210.7314
		l6.298302,4.932709l25.895496-5.773499c1.125999,4.952194,3.074699,9.58989,5.702103,13.760788l-22.3955,14.229507
		l-0.964802,7.941406l25.526905-19.025406c0.512596,0.676697,1.046799,1.334,1.5952,1.979492l-27.937504,23.743103
		l-1.285698,10.578217l10.580097-1.28421L85.601097,233.875c0.6455,0.549805,1.302704,1.085007,1.979004,1.59671
		l-19.024902,25.526276l7.941902-0.964783l14.229996-22.394501c4.171303,2.6259,8.807602,4.575195,13.760201,5.700195
		l-5.773895,25.896515l4.933098,6.297791l4.598099-31.506805c0.834999,0.116211,1.678299,0.206009,2.527405,0.273407
		l-2.966309,36.545898l6.571304,8.388702l6.572197-8.388702l-2.9673-36.545898
		c0.849205-0.067398,1.692398-0.157196,2.527405-0.273407l4.599594,31.506805l4.93261-6.297791l-5.772903-25.896515
		c4.952591-1.125,9.588791-3.074295,13.760696-5.702194l14.229004,22.3965l7.941391,0.964783l-19.025894-25.526276
		c0.6763-0.513718,1.334503-1.046906,1.979996-1.59671l23.742706,27.938507l10.579102,1.28421l-1.285706-10.578217
		l-27.9375-23.743103c0.548401-0.645493,1.082611-1.302795,1.595306-1.979492l25.527786,19.025406l-0.96489-7.941406
		l-22.395508-14.231506c2.626511-4.1689,4.576202-8.806595,5.702209-13.758789l25.895996,5.773499l6.298294-4.932709
		l-31.507797-4.599594c0.115707-0.8349,0.205597-1.677704,0.273407-2.527298L195.221695,206.571304z"/>
	<polygon fill="#FFBD00" points="15.9307,32.82811 27.568399,42.948208 40.790501,35.006809 34.7617,49.20261 46.400398,59.324207 
		31.035601,57.977509 25.007299,72.173309 21.5396,57.144508 6.17578,55.797909 19.3979,47.855999 	"/>
	<polygon fill="#FFBD00" points="24.505899,323.108398 30.575199,337.288086 45.936001,335.897491 34.326199,346.048798 
		40.396,360.227509 27.151899,352.326202 15.542,362.479492 18.9653,347.441406 5.72119,339.539093 21.082001,338.146515 	"/>
	<polygon fill="#FFBD00" points="287.79538,178.709 287.74408,194.132813 302.397491,198.9478 287.714386,203.663101 
		287.662598,219.086899 278.639191,206.580109 263.95459,211.296906 273.061005,198.850098 264.035187,186.344208 
		278.68988,191.157211 	"/>
</g>
</svg>
