<svg class="svgOrigin" xmlns="http://www.w3.org/2000/svg" width="600" height="400" x="0px" y="0px" viewBox="0 0 600 400" enable-background="new 0 0 600 400">
<g>
	<rect x="0.000488" fill="#FFFFFF" width="599.999512" height="400"/>
	<rect x="0.000488" fill="#D60029" width="599.999512" height="199.999512"/>
	<path fill="#FFFFFF" d="M89.560097,100.000511c0-34.962906,24.7612-64.139206,57.701607-70.959999
		c-5.740707-1.446301-11.747513-2.222601-17.938004-2.222601c-40.417397,0-73.182602,32.764599-73.182602,73.181595
		S88.906303,173.18161,129.3237,173.18161c6.190491,0,12.197296-0.776306,17.938004-2.223099
		C114.321297,164.137711,89.560097,134.962402,89.560097,100.000511z"/>
	<polygon fill="#FFFFFF" points="165.357895,52.81451 167.546402,59.548309 174.626007,59.548309 168.898895,63.709 
		171.085892,70.44191 165.357895,66.281212 159.630402,70.44191 161.81839,63.709 156.09079,59.548309 163.170395,59.548309 	"/>
	<polygon fill="#FFFFFF" points="127.236794,80.513206 129.423798,87.247108 136.503403,87.247108 130.776398,91.407707 
		132.964798,98.14061 127.236794,93.980003 121.508293,98.14061 123.695793,91.407707 117.969696,87.247108 125.048798,87.247108 	
		"/>
	<polygon fill="#FFFFFF" points="141.798294,125.32711 143.985397,132.060501 151.064896,132.060501 145.338394,136.221207 
		147.526398,142.954102 141.798294,138.793503 136.069794,142.954102 138.257797,136.221207 132.531296,132.060501 
		139.610794,132.060501 	"/>
	<polygon fill="#FFFFFF" points="188.918503,125.32711 191.106003,132.060501 198.185501,132.060501 192.459,136.221207 
		194.6465,142.954102 188.918503,138.793503 183.190399,142.954102 185.378403,136.221207 179.651398,132.060501 
		186.731003,132.060501 	"/>
	<polygon fill="#FFFFFF" points="203.480499,80.513206 205.667496,87.247108 212.747101,87.247108 207.020493,91.407707 
		209.208496,98.14061 203.480499,93.980003 197.751999,98.14061 199.939896,91.407707 194.212891,87.247108 201.292496,87.247108 	
		"/>
</g>
</svg>
