<svg class="svgOrigin" xmlns="http://www.w3.org/2000/svg" width="600" height="400" x="0px" y="0px" viewBox="0 0 600 400" enable-background="new 0 0 600 400">
<g>
	<rect x="0.000488" y="-0.00049" fill="#FFFFFF" width="599.999512" height="400.000488"/>
	<path fill="#004A84" d="M347.898376,167.660599c-37.502899,0-47.897888,32.338913-47.897888,32.338913
		s-10.394989,32.339386-47.897491,32.339386c-29.8237,0-55.637695-20.586899-51.908707-72.037094
		c-4.890594,12.284607-7.607895,25.669907-7.607895,39.697708c0,59.322784,48.090393,107.413574,107.414093,107.413574
		c45.294403,0,84.0112-28.047882,99.805206-67.711884C403.537079,188.248001,377.722687,167.660599,347.898376,167.660599z"/>
	<path fill="#D60029" d="M300.000488,92.585907c-45.295395,0-84.013687,28.050301-99.806198,67.715897
		c-3.728989,51.450195,22.085007,72.037094,51.908707,72.037094c37.502502,0,47.897491-32.339386,47.897491-32.339386
		s10.394989-32.338913,47.897888-32.338913c29.82431,0,55.638702,20.587402,51.907318,72.040604
		c4.892487-12.285202,7.609314-25.672897,7.609314-39.701691C407.415009,140.6772,359.324188,92.585907,300.000488,92.585907z"/>
	
		<rect x="113.546844" y="105.438995" transform="matrix(0.561765 -0.827296 0.827296 0.561765 -22.34506 183.93364)" width="97.790108" height="15.238523"/>
	
		<rect x="93.416946" y="90.41674" transform="matrix(0.561763 -0.827298 0.827298 0.561763 -18.738642 160.697433)" width="97.7901" height="15.238528"/>
	
		<rect x="73.287033" y="75.394684" transform="matrix(0.561763 -0.827298 0.827298 0.561763 -15.132491 137.460953)" width="97.790421" height="15.2385"/>
	
		<rect x="446.584137" y="46.30127" transform="matrix(0.829699 -0.558212 0.558212 0.829699 24.211666 269.75354)" width="15.237961" height="97.790321"/>
	
		<rect x="154.822968" y="233.738174" transform="matrix(0.827303 -0.561756 0.561756 0.827303 -130.717865 140.062698)" width="15.237849" height="97.790764"/>
	
		<rect x="114.563545" y="263.782562" transform="matrix(0.8273 -0.561761 0.561761 0.8273 -154.549133 122.63665)" width="15.237404" height="97.790382"/>
	<polygon points="411.785187,63.454609 399.141602,71.959999 423.738281,108.516106 436.325195,99.926308 	"/>
	<polygon points="453.732391,153.096207 466.375,144.588409 443.217804,110.17141 430.632782,118.762207 	"/>
	<polygon points="454.673798,37.298309 442.031281,45.803207 465.188477,80.224106 477.775391,71.632309 	"/>
	<polygon points="496.61908,126.939903 509.263702,118.43161 484.667999,81.87841 472.081085,90.469208 	"/>
	<polygon points="121.147896,252.924805 108.542,261.485413 132.585892,296.896515 145.102493,288.201202 	"/>
	<polygon points="139.523392,307.113312 163.475098,342.388702 176.082993,333.825195 152.040497,298.418915 	"/>
	<polygon points="466.375,251.104507 453.732391,242.595703 430.792999,276.689514 443.305695,285.392609 	"/>
	<polygon points="399.141602,323.732391 411.785187,332.237305 436.40918,295.639587 423.897491,286.939514 	"/>
	<polygon points="487.820282,264.182617 475.175781,255.673798 451.394501,291.018616 463.908203,299.719696 	"/>
	<polygon points="420.587891,336.810486 433.228485,345.315399 457.012695,309.968689 444.5,301.267609 	"/>
	<polygon points="509.263702,277.260712 496.61908,268.752014 471.998993,305.347687 484.511688,314.048798 	"/>
	<polygon points="442.031281,349.888702 454.673798,358.393585 477.615173,324.297913 465.102478,315.594696 	"/>
</g>
</svg>
