<svg class="svgOrigin" xmlns="http://www.w3.org/2000/svg" width="600" height="400" x="0px" y="0px" viewBox="0 0 600 400" enable-background="new 0 0 600 400">
<g>
	<rect x="0.000488" y="-0.00049" fill="#D60029" width="599.999512" height="400.000488"/>
	<polygon fill="#FFFFFF" points="304.655304,161.3564 322.048798,185.000504 349.904297,175.756302 332.801788,199.613312 
		350.195282,223.259811 322.233398,214.357407 305.127014,238.216797 304.947296,208.857407 276.98288,199.958511 
		304.836884,190.714401 	"/>
	<path fill="#FFFFFF" d="M208.49559,279.453094c-44.19429,0-80.020493-35.264587-80.020493-78.765091
		c0-43.5,35.826202-78.765099,80.020493-78.765099c31.360413,0,58.488815,17.765602,71.611801,43.620995
		c-14.164001-40.904694-52.328094-70.216789-97.209503-70.216789c-56.94529,0-101.469185,47.171394-101.469185,105.360893
		c0,58.189011,44.523895,101.5327,101.469185,101.5327c44.881409,0,83.045502-25.485291,97.208496-66.387711
		C266.984406,261.6875,239.854996,279.453094,208.49559,279.453094z"/>
</g>
</svg>
