<svg class="svgOrigin" xmlns="http://www.w3.org/2000/svg" width="600" height="400" x="0px" y="0px" viewBox="0 0 600 400" enable-background="new 0 0 600 400">
<g>
	<rect x="-0.000488" fill="#005284" width="600.000488" height="400.001953"/>
	<polygon fill="#FFFFFF" points="599.997986,0.001 526.565369,0.001 347.018585,119.698204 347.018585,0.00291 252.975098,0.00291 
		252.975098,116.599609 78.077599,0.001 -0.000488,0.001 -0.000488,52.20211 151.162598,152.977509 -0.000488,152.977509 
		-0.000488,247.028305 156.025391,247.028305 -0.000488,351.046906 -0.000488,400 82.784698,400 252.975098,286.540985 
		252.975098,400.003906 347.026398,400.003906 347.026398,283.553711 521.696289,400 599.997986,400 599.997986,347.950195 
		448.615204,247.028305 599.99408,247.028305 599.99408,152.977509 453.31839,152.977509 599.997986,55.19091 	"/>
	<polygon fill="#D60029" points="599.997986,173.433609 326.565399,173.433609 326.565399,-0.001 273.43158,-0.001 
		273.43158,173.433609 -0.000488,173.433609 -0.000488,226.568405 273.43158,226.568405 273.43158,400 326.567383,400 
		326.567383,226.568405 599.997986,226.568405 	"/>
	<polygon fill="#D60029" points="-0.000488,0.001 -0.000488,32.68071 179.502396,152.348099 228.520996,152.348099 	"/>
	<polygon fill="#D60029" points="599.99408,367.31839 420.495087,247.651398 371.478485,247.653305 599.997986,400 	"/>
	<polygon fill="#D60029" points="347.018585,152.348099 347.018585,135.977112 550.979492,0.001 599.997986,0.001 
		371.480499,152.348099 	"/>
	<polygon fill="#D60029" points="228.520996,247.653305 -0.000488,400 49.02,400 252.975098,264.030304 252.975098,247.653305 	"/>
</g>
</svg>
